        <svg width="151" height="27" viewBox="0 0 151 27" fill="none" xmlns="http://www.w3.org/2000/svg">
<g clip-path="url(#clip0_75_55)">
<rect width="151" height="27" />
<mask id="path-1-outside-1_75_55" maskUnits="userSpaceOnUse" x="1" y="3" width="148" height="21" fill="black">
<rect fill="white" x="1" y="3" width="148" height="21"/>
<path d="M2.432 4.864H16.472V6.16H10.184V22H8.72V6.16H2.432V4.864ZM17.0263 4.864H18.6823L22.7863 20.032H22.8583L27.0583 4.864H28.7623L32.9623 20.032H33.0343L37.1383 4.864H38.7943L33.8743 22H32.1463L27.9463 6.928H27.8743L23.6743 22H21.9463L17.0263 4.864ZM39.3461 4.864H53.3861V6.16H47.0981V22H45.6341V6.16H39.3461V4.864ZM69.1565 4.528C71.0285 4.528 72.5165 4.984 73.6205 5.896C74.7565 6.808 75.3965 8.152 75.5405 9.928H74.0765C73.8845 8.6 73.3805 7.584 72.5645 6.88C71.7645 6.192 70.6125 5.848 69.1085 5.848C67.7325 5.848 66.6445 6.088 65.8445 6.568C64.9485 7.08 64.5005 7.888 64.5005 8.992C64.5005 9.936 65.0365 10.696 66.1085 11.272C66.6845 11.544 67.7805 11.912 69.3965 12.376C71.6205 13.016 73.0925 13.56 73.8125 14.008C75.2365 14.856 75.9485 16.056 75.9485 17.608C75.9485 19.08 75.3325 20.248 74.1005 21.112C72.9325 21.928 71.3725 22.336 69.4205 22.336C67.4525 22.336 65.9005 21.888 64.7645 20.992C63.4685 19.968 62.7485 18.416 62.6045 16.336H64.0445C64.2205 17.952 64.7805 19.152 65.7245 19.936C66.6045 20.64 67.8285 20.992 69.3965 20.992C70.8845 20.992 72.1085 20.696 73.0685 20.104C73.9965 19.496 74.4605 18.688 74.4605 17.68C74.4605 16.512 73.8765 15.6 72.7085 14.944C72.0685 14.576 70.8125 14.136 68.9405 13.624C66.8925 13.048 65.5805 12.592 65.0045 12.256C63.6925 11.52 63.0365 10.448 63.0365 9.04C63.0365 7.552 63.6525 6.416 64.8845 5.632C65.9725 4.896 67.3965 4.528 69.1565 4.528ZM77.1742 4.864H91.2142V6.16H84.9262V22H83.4622V6.16H77.1742V4.864ZM93.4004 4.864H94.8644V15.376C94.8644 17.232 95.2644 18.616 96.0644 19.528C96.9284 20.52 98.2644 21.016 100.072 21.016C101.88 21.016 103.216 20.52 104.08 19.528C104.88 18.584 105.28 17.2 105.28 15.376V4.864H106.744V15.376C106.744 17.584 106.208 19.288 105.136 20.488C104 21.72 102.312 22.336 100.072 22.336C97.8324 22.336 96.1524 21.728 95.0324 20.512C93.9444 19.328 93.4004 17.616 93.4004 15.376V4.864ZM110.252 4.864H116.348C119.02 4.864 121.028 5.664 122.372 7.264C123.604 8.72 124.22 10.776 124.22 13.432C124.22 16.04 123.532 18.104 122.156 19.624C120.716 21.208 118.676 22 116.036 22H110.252V4.864ZM111.716 6.16V20.704H115.82C118.108 20.704 119.852 20.056 121.052 18.76C122.204 17.512 122.78 15.736 122.78 13.432C122.78 11.032 122.276 9.248 121.268 8.08C120.18 6.8 118.468 6.16 116.132 6.16H111.716ZM127.226 4.864H128.69V22H127.226V4.864ZM139.816 4.528C142.328 4.528 144.328 5.392 145.816 7.12C147.208 8.752 147.904 10.856 147.904 13.432C147.904 16.024 147.208 18.136 145.816 19.768C144.328 21.48 142.32 22.336 139.792 22.336C137.248 22.336 135.24 21.472 133.768 19.744C132.376 18.112 131.68 16.008 131.68 13.432C131.68 10.856 132.376 8.752 133.768 7.12C135.256 5.392 137.272 4.528 139.816 4.528ZM139.816 5.872C137.72 5.872 136.072 6.592 134.872 8.032C133.72 9.424 133.144 11.224 133.144 13.432C133.144 15.688 133.712 17.488 134.848 18.832C136.048 20.272 137.696 20.992 139.792 20.992C141.872 20.992 143.512 20.28 144.712 18.856C145.864 17.48 146.44 15.672 146.44 13.432C146.44 11.16 145.864 9.352 144.712 8.008C143.528 6.584 141.896 5.872 139.816 5.872Z"/>
</mask>
<path d="M2.432 4.864H16.472V6.16H10.184V22H8.72V6.16H2.432V4.864ZM17.0263 4.864H18.6823L22.7863 20.032H22.8583L27.0583 4.864H28.7623L32.9623 20.032H33.0343L37.1383 4.864H38.7943L33.8743 22H32.1463L27.9463 6.928H27.8743L23.6743 22H21.9463L17.0263 4.864ZM39.3461 4.864H53.3861V6.16H47.0981V22H45.6341V6.16H39.3461V4.864ZM69.1565 4.528C71.0285 4.528 72.5165 4.984 73.6205 5.896C74.7565 6.808 75.3965 8.152 75.5405 9.928H74.0765C73.8845 8.6 73.3805 7.584 72.5645 6.88C71.7645 6.192 70.6125 5.848 69.1085 5.848C67.7325 5.848 66.6445 6.088 65.8445 6.568C64.9485 7.08 64.5005 7.888 64.5005 8.992C64.5005 9.936 65.0365 10.696 66.1085 11.272C66.6845 11.544 67.7805 11.912 69.3965 12.376C71.6205 13.016 73.0925 13.56 73.8125 14.008C75.2365 14.856 75.9485 16.056 75.9485 17.608C75.9485 19.08 75.3325 20.248 74.1005 21.112C72.9325 21.928 71.3725 22.336 69.4205 22.336C67.4525 22.336 65.9005 21.888 64.7645 20.992C63.4685 19.968 62.7485 18.416 62.6045 16.336H64.0445C64.2205 17.952 64.7805 19.152 65.7245 19.936C66.6045 20.64 67.8285 20.992 69.3965 20.992C70.8845 20.992 72.1085 20.696 73.0685 20.104C73.9965 19.496 74.4605 18.688 74.4605 17.68C74.4605 16.512 73.8765 15.6 72.7085 14.944C72.0685 14.576 70.8125 14.136 68.9405 13.624C66.8925 13.048 65.5805 12.592 65.0045 12.256C63.6925 11.52 63.0365 10.448 63.0365 9.04C63.0365 7.552 63.6525 6.416 64.8845 5.632C65.9725 4.896 67.3965 4.528 69.1565 4.528ZM77.1742 4.864H91.2142V6.16H84.9262V22H83.4622V6.16H77.1742V4.864ZM93.4004 4.864H94.8644V15.376C94.8644 17.232 95.2644 18.616 96.0644 19.528C96.9284 20.52 98.2644 21.016 100.072 21.016C101.88 21.016 103.216 20.52 104.08 19.528C104.88 18.584 105.28 17.2 105.28 15.376V4.864H106.744V15.376C106.744 17.584 106.208 19.288 105.136 20.488C104 21.72 102.312 22.336 100.072 22.336C97.8324 22.336 96.1524 21.728 95.0324 20.512C93.9444 19.328 93.4004 17.616 93.4004 15.376V4.864ZM110.252 4.864H116.348C119.02 4.864 121.028 5.664 122.372 7.264C123.604 8.72 124.22 10.776 124.22 13.432C124.22 16.04 123.532 18.104 122.156 19.624C120.716 21.208 118.676 22 116.036 22H110.252V4.864ZM111.716 6.16V20.704H115.82C118.108 20.704 119.852 20.056 121.052 18.76C122.204 17.512 122.78 15.736 122.78 13.432C122.78 11.032 122.276 9.248 121.268 8.08C120.18 6.8 118.468 6.16 116.132 6.16H111.716ZM127.226 4.864H128.69V22H127.226V4.864ZM139.816 4.528C142.328 4.528 144.328 5.392 145.816 7.12C147.208 8.752 147.904 10.856 147.904 13.432C147.904 16.024 147.208 18.136 145.816 19.768C144.328 21.48 142.32 22.336 139.792 22.336C137.248 22.336 135.24 21.472 133.768 19.744C132.376 18.112 131.68 16.008 131.68 13.432C131.68 10.856 132.376 8.752 133.768 7.12C135.256 5.392 137.272 4.528 139.816 4.528ZM139.816 5.872C137.72 5.872 136.072 6.592 134.872 8.032C133.72 9.424 133.144 11.224 133.144 13.432C133.144 15.688 133.712 17.488 134.848 18.832C136.048 20.272 137.696 20.992 139.792 20.992C141.872 20.992 143.512 20.28 144.712 18.856C145.864 17.48 146.44 15.672 146.44 13.432C146.44 11.16 145.864 9.352 144.712 8.008C143.528 6.584 141.896 5.872 139.816 5.872Z" fill="black" fill-opacity="0.7"/>
<path d="M2.432 4.864V3.864H1.432V4.864H2.432ZM16.472 4.864H17.472V3.864H16.472V4.864ZM16.472 6.16V7.16H17.472V6.16H16.472ZM10.184 6.16V5.16H9.184V6.16H10.184ZM10.184 22V23H11.184V22H10.184ZM8.72 22H7.72V23H8.72V22ZM8.72 6.16H9.72V5.16H8.72V6.16ZM2.432 6.16H1.432V7.16H2.432V6.16ZM2.432 5.864H16.472V3.864H2.432V5.864ZM15.472 4.864V6.16H17.472V4.864H15.472ZM16.472 5.16H10.184V7.16H16.472V5.16ZM9.184 6.16V22H11.184V6.16H9.184ZM10.184 21H8.72V23H10.184V21ZM9.72 22V6.16H7.72V22H9.72ZM8.72 5.16H2.432V7.16H8.72V5.16ZM3.432 6.16V4.864H1.432V6.16H3.432ZM17.0263 4.864V3.864H15.6987L16.0651 5.13996L17.0263 4.864ZM18.6823 4.864L19.6475 4.60282L19.4476 3.864H18.6823V4.864ZM22.7863 20.032L21.821 20.2932L22.0209 21.032H22.7863V20.032ZM22.8583 20.032V21.032H23.619L23.822 20.2989L22.8583 20.032ZM27.0583 4.864V3.864H26.2975L26.0945 4.59714L27.0583 4.864ZM28.7623 4.864L29.726 4.59714L29.523 3.864H28.7623V4.864ZM32.9623 20.032L31.9985 20.2989L32.2015 21.032H32.9623V20.032ZM33.0343 20.032V21.032H33.7996L33.9995 20.2932L33.0343 20.032ZM37.1383 4.864V3.864H36.3729L36.173 4.60282L37.1383 4.864ZM38.7943 4.864L39.7554 5.13996L40.1218 3.864H38.7943V4.864ZM33.8743 22V23H34.6275L34.8354 22.276L33.8743 22ZM32.1463 22L31.183 22.2684L31.3868 23H32.1463V22ZM27.9463 6.928L28.9095 6.65956L28.7057 5.928H27.9463V6.928ZM27.8743 6.928V5.928H27.1148L26.911 6.65956L27.8743 6.928ZM23.6743 22V23H24.4337L24.6375 22.2684L23.6743 22ZM21.9463 22L20.9851 22.276L21.193 23H21.9463V22ZM17.0263 5.864H18.6823V3.864H17.0263V5.864ZM17.717 5.12518L21.821 20.2932L23.7515 19.7708L19.6475 4.60282L17.717 5.12518ZM22.7863 21.032H22.8583V19.032H22.7863V21.032ZM23.822 20.2989L28.022 5.13086L26.0945 4.59714L21.8945 19.7651L23.822 20.2989ZM27.0583 5.864H28.7623V3.864H27.0583V5.864ZM27.7985 5.13086L31.9985 20.2989L33.926 19.7651L29.726 4.59714L27.7985 5.13086ZM32.9623 21.032H33.0343V19.032H32.9623V21.032ZM33.9995 20.2932L38.1035 5.12518L36.173 4.60282L32.069 19.7708L33.9995 20.2932ZM37.1383 5.864H38.7943V3.864H37.1383V5.864ZM37.8331 4.58803L32.9131 21.724L34.8354 22.276L39.7554 5.13996L37.8331 4.58803ZM33.8743 21H32.1463V23H33.8743V21ZM33.1095 21.7316L28.9095 6.65956L26.983 7.19643L31.183 22.2684L33.1095 21.7316ZM27.9463 5.928H27.8743V7.928H27.9463V5.928ZM26.911 6.65956L22.711 21.7316L24.6375 22.2684L28.8375 7.19643L26.911 6.65956ZM23.6743 21H21.9463V23H23.6743V21ZM22.9074 21.724L17.9874 4.58803L16.0651 5.13996L20.9851 22.276L22.9074 21.724ZM39.3461 4.864V3.864H38.3461V4.864H39.3461ZM53.3861 4.864H54.3861V3.864H53.3861V4.864ZM53.3861 6.16V7.16H54.3861V6.16H53.3861ZM47.0981 6.16V5.16H46.0981V6.16H47.0981ZM47.0981 22V23H48.0981V22H47.0981ZM45.6341 22H44.6341V23H45.6341V22ZM45.6341 6.16H46.6341V5.16H45.6341V6.16ZM39.3461 6.16H38.3461V7.16H39.3461V6.16ZM39.3461 5.864H53.3861V3.864H39.3461V5.864ZM52.3861 4.864V6.16H54.3861V4.864H52.3861ZM53.3861 5.16H47.0981V7.16H53.3861V5.16ZM46.0981 6.16V22H48.0981V6.16H46.0981ZM47.0981 21H45.6341V23H47.0981V21ZM46.6341 22V6.16H44.6341V22H46.6341ZM45.6341 5.16H39.3461V7.16H45.6341V5.16ZM40.3461 6.16V4.864H38.3461V6.16H40.3461ZM73.6205 5.896L72.9836 6.66704L72.9945 6.6758L73.6205 5.896ZM75.5405 9.928V10.928H76.6249L76.5372 9.84718L75.5405 9.928ZM74.0765 9.928L73.0868 10.0711L73.2107 10.928H74.0765V9.928ZM72.5645 6.88L73.2177 6.12284L73.2165 6.12181L72.5645 6.88ZM65.8445 6.568L66.3406 7.43624L66.3499 7.43097L66.359 7.42549L65.8445 6.568ZM66.1085 11.272L65.6352 12.1529L65.658 12.1652L65.6815 12.1762L66.1085 11.272ZM69.3965 12.376L69.673 11.415L69.6725 11.4148L69.3965 12.376ZM73.8125 14.008L73.2842 14.8571L73.2925 14.8622L73.3008 14.8672L73.8125 14.008ZM74.1005 21.112L74.6732 21.9318L74.6747 21.9307L74.1005 21.112ZM64.7645 20.992L64.1445 21.7766L64.1452 21.7772L64.7645 20.992ZM62.6045 16.336V15.336H61.5329L61.6069 16.4051L62.6045 16.336ZM64.0445 16.336L65.0386 16.2277L64.9415 15.336H64.0445V16.336ZM65.7245 19.936L65.0856 20.7053L65.0926 20.7111L65.0998 20.7169L65.7245 19.936ZM73.0685 20.104L73.5934 20.9552L73.6051 20.948L73.6165 20.9405L73.0685 20.104ZM72.7085 14.944L72.21 15.811L72.2188 15.8159L72.7085 14.944ZM68.9405 13.624L68.6697 14.5867L68.6767 14.5886L68.9405 13.624ZM65.0045 12.256L65.5084 11.3922L65.5011 11.388L65.4938 11.3839L65.0045 12.256ZM64.8845 5.632L65.4214 6.47566L65.4332 6.46814L65.4448 6.46028L64.8845 5.632ZM69.1565 5.528C70.8683 5.528 72.1076 5.94331 72.9836 6.66696L74.2574 5.12504C72.9254 4.02469 71.1887 3.528 69.1565 3.528V5.528ZM72.9945 6.6758C73.8696 7.37839 74.4167 8.44123 74.5438 10.0088L76.5372 9.84718C76.3763 7.86277 75.6434 6.23761 74.2465 5.1162L72.9945 6.6758ZM75.5405 8.928H74.0765V10.928H75.5405V8.928ZM75.0662 9.78491C74.8485 8.27892 74.2578 7.02013 73.2177 6.12284L71.9113 7.63716C72.5032 8.14787 72.9205 8.92108 73.0868 10.0711L75.0662 9.78491ZM73.2165 6.12181C72.1713 5.22288 70.7514 4.848 69.1085 4.848V6.848C70.4736 6.848 71.3577 7.16112 71.9125 7.63818L73.2165 6.12181ZM69.1085 4.848C67.6317 4.848 66.3423 5.1031 65.33 5.71051L66.359 7.42549C66.9467 7.0729 67.8333 6.848 69.1085 6.848V4.848ZM65.3484 5.69976C64.115 6.40451 63.5005 7.55981 63.5005 8.992H65.5005C65.5005 8.21618 65.782 7.75549 66.3406 7.43624L65.3484 5.69976ZM63.5005 8.992C63.5005 10.4138 64.3484 11.4615 65.6352 12.1529L66.5818 10.3911C65.7246 9.93052 65.5005 9.45819 65.5005 8.992H63.5005ZM65.6815 12.1762C66.3404 12.4874 67.5101 12.8748 69.1205 13.3372L69.6725 11.4148C68.0509 10.9492 67.0286 10.6006 66.5355 10.3678L65.6815 12.1762ZM69.12 13.337C71.3578 13.981 72.6991 14.493 73.2842 14.8571L74.3408 13.1589C73.4859 12.627 71.8832 12.051 69.673 11.415L69.12 13.337ZM73.3008 14.8672C74.447 15.5497 74.9485 16.4366 74.9485 17.608H76.9485C76.9485 15.6754 76.026 14.1623 74.3242 13.1488L73.3008 14.8672ZM74.9485 17.608C74.9485 18.7454 74.4985 19.6115 73.5263 20.2933L74.6747 21.9307C76.1665 20.8845 76.9485 19.4146 76.9485 17.608H74.9485ZM73.5278 20.2922C72.5796 20.9547 71.2416 21.336 69.4205 21.336V23.336C71.5034 23.336 73.2854 22.9013 74.6732 21.9318L73.5278 20.2922ZM69.4205 21.336C67.5969 21.336 66.2892 20.921 65.3838 20.2068L64.1452 21.7772C65.5118 22.855 67.3081 23.336 69.4205 23.336V21.336ZM65.3845 20.2074C64.3647 19.4017 63.7321 18.1447 63.6021 16.2669L61.6069 16.4051C61.7649 18.6873 62.5723 20.5343 64.1445 21.7766L65.3845 20.2074ZM62.6045 17.336H64.0445V15.336H62.6045V17.336ZM63.0504 16.4443C63.2451 18.232 63.8838 19.7072 65.0856 20.7053L66.3634 19.1667C65.6772 18.5968 65.1959 17.672 65.0386 16.2277L63.0504 16.4443ZM65.0998 20.7169C66.2152 21.6092 67.689 21.992 69.3965 21.992V19.992C67.968 19.992 66.9938 19.6708 66.3492 19.1551L65.0998 20.7169ZM69.3965 21.992C71.0121 21.992 72.4328 21.6709 73.5934 20.9552L72.5436 19.2528C71.7842 19.7211 70.7569 19.992 69.3965 19.992V21.992ZM73.6165 20.9405C74.793 20.1697 75.4605 19.0635 75.4605 17.68H73.4605C73.4605 18.3125 73.2 18.8223 72.5205 19.2675L73.6165 20.9405ZM75.4605 17.68C75.4605 16.0908 74.6256 14.8738 73.1982 14.0721L72.2188 15.8159C73.1274 16.3262 73.4605 16.9332 73.4605 17.68H75.4605ZM73.207 14.0771C72.4413 13.6368 71.0672 13.1689 69.2043 12.6594L68.6767 14.5886C70.5578 15.1031 71.6957 15.5152 72.21 15.8109L73.207 14.0771ZM69.2112 12.6613C67.1362 12.0777 65.9541 11.6522 65.5084 11.3922L64.5006 13.1198C65.2069 13.5318 66.6488 14.0183 68.6698 14.5867L69.2112 12.6613ZM65.4938 11.3839C64.4707 10.8099 64.0365 10.0569 64.0365 9.04H62.0365C62.0365 10.8391 62.9143 12.2301 64.5152 13.1281L65.4938 11.3839ZM64.0365 9.04C64.0365 7.88602 64.4844 7.07191 65.4214 6.47566L64.3476 4.78834C62.8206 5.76009 62.0365 7.21798 62.0365 9.04H64.0365ZM65.4448 6.46028C66.3197 5.86842 67.5297 5.528 69.1565 5.528V3.528C67.2633 3.528 65.6253 3.92358 64.3242 4.80372L65.4448 6.46028ZM77.1742 4.864V3.864H76.1742V4.864H77.1742ZM91.2142 4.864H92.2142V3.864H91.2142V4.864ZM91.2142 6.16V7.16H92.2142V6.16H91.2142ZM84.9262 6.16V5.16H83.9262V6.16H84.9262ZM84.9262 22V23H85.9262V22H84.9262ZM83.4622 22H82.4622V23H83.4622V22ZM83.4622 6.16H84.4622V5.16H83.4622V6.16ZM77.1742 6.16H76.1742V7.16H77.1742V6.16ZM77.1742 5.864H91.2142V3.864H77.1742V5.864ZM90.2142 4.864V6.16H92.2142V4.864H90.2142ZM91.2142 5.16H84.9262V7.16H91.2142V5.16ZM83.9262 6.16V22H85.9262V6.16H83.9262ZM84.9262 21H83.4622V23H84.9262V21ZM84.4622 22V6.16H82.4622V22H84.4622ZM83.4622 5.16H77.1742V7.16H83.4622V5.16ZM78.1742 6.16V4.864H76.1742V6.16H78.1742ZM93.4004 4.864V3.864H92.4004V4.864H93.4004ZM94.8644 4.864H95.8644V3.864H94.8644V4.864ZM96.0644 19.528L96.8185 18.8712L96.8162 18.8686L96.0644 19.528ZM104.08 19.528L104.835 20.1848L104.843 20.1745L104.08 19.528ZM105.28 4.864V3.864H104.28V4.864H105.28ZM106.744 4.864H107.744V3.864H106.744V4.864ZM105.136 20.488L105.872 21.1659L105.877 21.1601L105.882 21.1542L105.136 20.488ZM95.0324 20.512L94.2961 21.1886L94.2969 21.1895L95.0324 20.512ZM93.4004 5.864H94.8644V3.864H93.4004V5.864ZM93.8644 4.864V15.376H95.8644V4.864H93.8644ZM93.8644 15.376C93.8644 17.351 94.2865 19.0176 95.3127 20.1874L96.8162 18.8686C96.2423 18.2144 95.8644 17.113 95.8644 15.376H93.8644ZM95.3104 20.1848C96.4277 21.4677 98.0884 22.016 100.072 22.016V20.016C98.4405 20.016 97.4292 19.5723 96.8185 18.8712L95.3104 20.1848ZM100.072 22.016C102.056 22.016 103.717 21.4677 104.835 20.1848L103.326 18.8712C102.716 19.5723 101.704 20.016 100.072 20.016V22.016ZM104.843 20.1745C105.855 18.9812 106.28 17.3277 106.28 15.376H104.28C104.28 17.0723 103.906 18.1868 103.318 18.8815L104.843 20.1745ZM106.28 15.376V4.864H104.28V15.376H106.28ZM105.28 5.864H106.744V3.864H105.28V5.864ZM105.744 4.864V15.376H107.744V4.864H105.744ZM105.744 15.376C105.744 17.4302 105.247 18.8637 104.391 19.8218L105.882 21.1542C107.17 19.7123 107.744 17.7378 107.744 15.376H105.744ZM104.401 19.8101C103.512 20.7742 102.131 21.336 100.072 21.336V23.336C102.493 23.336 104.489 22.6658 105.872 21.1659L104.401 19.8101ZM100.072 21.336C98.0087 21.336 96.6385 20.7797 95.768 19.8345L94.2969 21.1895C95.6664 22.6763 97.6562 23.336 100.072 23.336V21.336ZM95.7688 19.8354C94.9071 18.8977 94.4004 17.4643 94.4004 15.376H92.4004C92.4004 17.7677 92.9818 19.7583 94.2961 21.1886L95.7688 19.8354ZM94.4004 15.376V4.864H92.4004V15.376H94.4004ZM110.252 4.864V3.864H109.252V4.864H110.252ZM122.372 7.264L121.606 7.9072L121.609 7.90994L122.372 7.264ZM122.156 19.624L122.896 20.2967L122.897 20.2951L122.156 19.624ZM110.252 22H109.252V23H110.252V22ZM111.716 6.16V5.16H110.716V6.16H111.716ZM111.716 20.704H110.716V21.704H111.716V20.704ZM121.052 18.76L121.786 19.4394L121.787 19.4383L121.052 18.76ZM121.268 8.08L120.506 8.72767L120.511 8.73335L121.268 8.08ZM110.252 5.864H116.348V3.864H110.252V5.864ZM116.348 5.864C118.813 5.864 120.503 6.59357 121.606 7.90719L123.138 6.62081C121.553 4.73443 119.227 3.864 116.348 3.864V5.864ZM121.609 7.90994C122.637 9.12568 123.22 10.9204 123.22 13.432H125.22C125.22 10.6316 124.571 8.31432 123.135 6.61806L121.609 7.90994ZM123.22 13.432C123.22 15.8618 122.583 17.6627 121.415 18.9529L122.897 20.2951C124.481 18.5453 125.22 16.2182 125.22 13.432H123.22ZM121.416 18.9513C120.208 20.2797 118.465 21 116.036 21V23C118.887 23 121.224 22.1363 122.896 20.2967L121.416 18.9513ZM116.036 21H110.252V23H116.036V21ZM111.252 22V4.864H109.252V22H111.252ZM110.716 6.16V20.704H112.716V6.16H110.716ZM111.716 21.704H115.82V19.704H111.716V21.704ZM115.82 21.704C118.3 21.704 120.345 20.9959 121.786 19.4394L120.318 18.0806C119.359 19.1161 117.916 19.704 115.82 19.704V21.704ZM121.787 19.4383C123.162 17.9481 123.78 15.8965 123.78 13.432H121.78C121.78 15.5755 121.246 17.0759 120.317 18.0817L121.787 19.4383ZM123.78 13.432C123.78 10.9192 123.257 8.85361 122.025 7.42665L120.511 8.73335C121.295 9.64239 121.78 11.1448 121.78 13.432H123.78ZM122.03 7.43235C120.686 5.85138 118.642 5.16 116.132 5.16V7.16C118.294 7.16 119.674 7.74862 120.506 8.72765L122.03 7.43235ZM116.132 5.16H111.716V7.16H116.132V5.16ZM127.226 4.864V3.864H126.226V4.864H127.226ZM128.69 4.864H129.69V3.864H128.69V4.864ZM128.69 22V23H129.69V22H128.69ZM127.226 22H126.226V23H127.226V22ZM127.226 5.864H128.69V3.864H127.226V5.864ZM127.69 4.864V22H129.69V4.864H127.69ZM128.69 21H127.226V23H128.69V21ZM128.226 22V4.864H126.226V22H128.226ZM145.816 7.12L146.577 6.47105L146.574 6.46748L145.816 7.12ZM145.816 19.768L146.571 20.424L146.577 20.4169L145.816 19.768ZM133.768 19.744L134.53 19.0955L134.529 19.0951L133.768 19.744ZM133.768 7.12L133.011 6.46747L133.008 6.47105L133.768 7.12ZM134.872 8.032L134.104 7.39181L134.102 7.39443L134.872 8.032ZM134.848 18.832L135.617 18.1918L135.612 18.1865L134.848 18.832ZM144.712 18.856L145.477 19.5004L145.479 19.4979L144.712 18.856ZM144.712 8.008L143.944 8.64733L143.948 8.6531L143.953 8.65879L144.712 8.008ZM139.816 5.528C142.071 5.528 143.781 6.28916 145.059 7.77252L146.574 6.46748C144.876 4.49484 142.586 3.528 139.816 3.528V5.528ZM145.056 7.76895C146.264 9.18527 146.904 11.0439 146.904 13.432H148.904C148.904 10.6681 148.153 8.31873 146.577 6.47105L145.056 7.76895ZM146.904 13.432C146.904 15.8378 146.263 17.7038 145.056 19.1191L146.577 20.4169C148.154 18.5682 148.904 16.2102 148.904 13.432H146.904ZM145.062 19.112C143.787 20.5789 142.068 21.336 139.792 21.336V23.336C142.573 23.336 144.87 22.3811 146.571 20.424L145.062 19.112ZM139.792 21.336C137.502 21.336 135.787 20.572 134.53 19.0955L133.007 20.3925C134.694 22.372 136.995 23.336 139.792 23.336V21.336ZM134.529 19.0951C133.321 17.6787 132.68 15.8201 132.68 13.432H130.68C130.68 16.1959 131.432 18.5453 133.008 20.3929L134.529 19.0951ZM132.68 13.432C132.68 11.0439 133.321 9.18527 134.529 7.76895L133.008 6.47105C131.432 8.31873 130.68 10.6681 130.68 13.432H132.68ZM134.526 7.77252C135.801 6.29221 137.526 5.528 139.816 5.528V3.528C137.019 3.528 134.712 4.49179 133.011 6.46748L134.526 7.77252ZM139.816 4.872C137.463 4.872 135.518 5.6951 134.104 7.39182L135.641 8.67218C136.627 7.4889 137.978 6.872 139.816 6.872V4.872ZM134.102 7.39443C132.771 9.00305 132.144 11.0447 132.144 13.432H134.144C134.144 11.4033 134.67 9.84495 135.643 8.66957L134.102 7.39443ZM132.144 13.432C132.144 15.8562 132.757 17.9071 134.085 19.4775L135.612 18.1865C134.668 17.0689 134.144 15.5198 134.144 13.432H132.144ZM134.08 19.4722C135.494 21.1689 137.439 21.992 139.792 21.992V19.992C137.954 19.992 136.603 19.3751 135.617 18.1918L134.08 19.4722ZM139.792 21.992C142.128 21.992 144.063 21.178 145.477 19.5004L143.948 18.2116C142.961 19.382 141.616 19.992 139.792 19.992V21.992ZM145.479 19.4979C146.816 17.9008 147.44 15.8467 147.44 13.432H145.44C145.44 15.4973 144.913 17.0592 143.946 18.2141L145.479 19.4979ZM147.44 13.432C147.44 10.9906 146.819 8.9289 145.472 7.35721L143.953 8.65879C144.91 9.7751 145.44 11.3294 145.44 13.432H147.44ZM145.481 7.36867C144.083 5.68626 142.152 4.872 139.816 4.872V6.872C141.64 6.872 142.974 7.48174 143.944 8.64733L145.481 7.36867Z" fill="black" fill-opacity="0.7" mask="url(#path-1-outside-1_75_55)"/>
</g>
<defs>
<clipPath id="clip0_75_55">
<rect width="151" height="27" fill="white"/>
</clipPath>
</defs>
</svg>
